<svg xmlns="http://www.w3.org/2000/svg" xmlns:xlink="http://www.w3.org/1999/xlink" version="1.1" x="0px" y="0px" viewBox="0 0 93 116.25" style="enable-background:new 0 0 93 93;" xml:space="preserve">
	<path fill="#B91818" class="st0" d="M88.1,30H4.9c-0.9,0-1.8,0.4-2.4,1c-0.6,0.6-1,1.5-1,2.4v29.5c0,0.9,0.4,1.8,1,2.4c0.6,0.6,1.5,1,2.4,1h83.2  c0.9,0,1.8-0.4,2.4-1c0.6-0.6,1-1.5,1-2.4V33.4c0-0.9-0.4-1.8-1-2.4C89.9,30.4,89,30,88.1,30L88.1,30z M5.3,61V35.2  c0-0.8,0.7-1.5,1.5-1.5h79.5c0.8,0,1.5,0.7,1.5,1.5V61c0,0.8-0.7,1.5-1.5,1.5H6.8C5.9,62.5,5.3,61.9,5.3,61L5.3,61z M8.2,36.7h76.5,36.7z M9.1,27h74.7v-3c0-0.7-0.3-1.4-0.8-1.8c-0.5-0.5-1.1-0.8-1.8-0.8H11.7c-0.7,0-1.4,0.3-1.8,0.8  c-0.5,0.5-0.8,1.1-0.8,1.8V27L9.1,27z M19.4,69.3h-8.6l0.8,2.4h7.1L19.4,69.3L19.4,69.3z M82.2,69.3h-8.6l0.8,2.4h7.1L82.2,69.3z"/>
</svg>